<?xml version="1.0" encoding="UTF-8"?>
<!DOCTYPE svg PUBLIC "-//W3C//DTD SVG 1.1//EN" "http://www.w3.org/Graphics/SVG/1.1/DTD/svg11.dtd">
<!-- Creator: CorelDRAW X6 -->
<svg xmlns="http://www.w3.org/2000/svg" xml:space="preserve" width="52.2116mm" height="2.4004mm" version="1.1" style="shape-rendering:geometricPrecision; text-rendering:geometricPrecision; image-rendering:optimizeQuality; fill-rule:evenodd; clip-rule:evenodd"
viewBox="0 0 5130 236"
 xmlns:xlink="http://www.w3.org/1999/xlink">
 <defs>
  <style type="text/css">
   <![CDATA[
    .fil0 {fill:url(#id0);fill-rule:nonzero}
   ]]>
  </style>
  <radialGradient id="id0" gradientUnits="objectBoundingBox" cx="50%" cy="49.999%" r="50%" fx="50%" fy="49.999%">
   <stop offset="0" style="stop-color:#8A8684"/>
   <stop offset="0.639216" style="stop-color:#54514F"/>
   <stop offset="1" style="stop-color:#1E1D1A"/>
  </radialGradient>
 </defs>
 <g id="Layer_x0020_1">
  <metadata id="CorelCorpID_0Corel-Layer"/>
  <path class="fil0" d="M35 59l0 118 -35 0 0 -118 35 0zm182 0l0 118 -35 0 0 -118 35 0zm182 0l0 118 -35 0 0 -118 35 0zm182 0l0 118 -35 0 0 -118 35 0zm182 -59l0 236 -35 0 0 -236 35 0zm182 59l0 118 -35 0 0 -118 35 0zm182 0l0 118 -35 0 0 -118 35 0zm182 0l0 118 -35 0 0 -118 35 0zm182 0l0 118 -35 0 0 -118 35 0zm182 -59l0 236 -35 0 0 -236 35 0zm182 59l0 118 -35 0 0 -118 35 0zm182 0l0 118 -35 0 0 -118 35 0zm182 0l0 118 -35 0 0 -118 35 0zm182 0l0 118 -35 0 0 -118 35 0zm182 -59l0 236 -35 0 0 -236 35 0zm181 59l0 118 -34 0 0 -118 34 0zm182 0l0 118 -34 0 0 -118 34 0zm182 0l0 118 -34 0 0 -118 34 0zm182 0l0 118 -34 0 0 -118 34 0zm182 -59l0 236 -34 0 0 -236 34 0zm182 59l0 118 -34 0 0 -118 34 0zm182 0l0 118 -34 0 0 -118 34 0zm182 0l0 118 -34 0 0 -118 34 0zm182 0l0 118 -34 0 0 -118 34 0zm182 -59l0 236 -34 0 0 -236 34 0zm182 59l0 118 -34 0 0 -118 34 0zm182 0l0 118 -34 0 0 -118 34 0zm182 0l0 118 -34 0 0 -118 34 0zm182 0l0 118 -34 0 0 -118 34 0z"/>
 </g>
</svg>
